<svg xmlns="http://www.w3.org/2000/svg" xmlns:xlink="http://www.w3.org/1999/xlink" width="458" zoomAndPan="magnify" viewBox="0 0 343.5 294.749996" height="393" preserveAspectRatio="xMidYMid meet" version="1.0"><defs><clipPath id="95b3d2521b"><path d="M 0 198.414062 L 109.46875 198.414062 L 109.46875 294.0625 L 0 294.0625 Z M 0 198.414062 " clip-rule="nonzero"/></clipPath><clipPath id="b8df846d29"><path d="M 54.65625 198.414062 L 109.308594 294.0625 L 0 294.0625 Z M 54.65625 198.414062 " clip-rule="nonzero"/></clipPath><clipPath id="024d21ca0c"><path d="M 0 0.414062 L 109.46875 0.414062 L 109.46875 96.0625 L 0 96.0625 Z M 0 0.414062 " clip-rule="nonzero"/></clipPath><clipPath id="f81d21c414"><path d="M 54.65625 0.414062 L 109.308594 96.0625 L 0 96.0625 Z M 54.65625 0.414062 " clip-rule="nonzero"/></clipPath><clipPath id="462d86ccc6"><rect x="0" width="110" y="0" height="97"/></clipPath><clipPath id="f29848aad2"><path d="M 58.230469 198.40625 L 167.699219 198.40625 L 167.699219 294.054688 L 58.230469 294.054688 Z M 58.230469 198.40625 " clip-rule="nonzero"/></clipPath><clipPath id="b609e84f6e"><path d="M 113.042969 294.054688 L 58.390625 198.40625 L 167.699219 198.40625 Z M 113.042969 294.054688 " clip-rule="nonzero"/></clipPath><clipPath id="d024324500"><path d="M 0.234375 0.40625 L 109.699219 0.40625 L 109.699219 96.054688 L 0.234375 96.054688 Z M 0.234375 0.40625 " clip-rule="nonzero"/></clipPath><clipPath id="c3a45261d3"><path d="M 55.042969 96.054688 L 0.390625 0.40625 L 109.699219 0.40625 Z M 55.042969 96.054688 " clip-rule="nonzero"/></clipPath><clipPath id="02ab2d9e7a"><rect x="0" width="110" y="0" height="97"/></clipPath><clipPath id="c063dcf679"><path d="M 116.699219 198.414062 L 226.167969 198.414062 L 226.167969 294.0625 L 116.699219 294.0625 Z M 116.699219 198.414062 " clip-rule="nonzero"/></clipPath><clipPath id="e5f6507cbb"><path d="M 171.351562 198.414062 L 226.007812 294.0625 L 116.699219 294.0625 Z M 171.351562 198.414062 " clip-rule="nonzero"/></clipPath><clipPath id="159b6a24c0"><path d="M 0.699219 0.414062 L 110.167969 0.414062 L 110.167969 96.0625 L 0.699219 96.0625 Z M 0.699219 0.414062 " clip-rule="nonzero"/></clipPath><clipPath id="95875d0328"><path d="M 55.351562 0.414062 L 110.007812 96.0625 L 0.699219 96.0625 Z M 55.351562 0.414062 " clip-rule="nonzero"/></clipPath><clipPath id="8bfa3a7560"><rect x="0" width="111" y="0" height="97"/></clipPath><clipPath id="29772106fc"><path d="M 175 198.40625 L 284.398438 198.40625 L 284.398438 294.054688 L 175 294.054688 Z M 175 198.40625 " clip-rule="nonzero"/></clipPath><clipPath id="046bbfae55"><path d="M 229.742188 294.054688 L 175.085938 198.40625 L 284.398438 198.40625 Z M 229.742188 294.054688 " clip-rule="nonzero"/></clipPath><clipPath id="c40ff5f720"><path d="M 0 0.40625 L 109.398438 0.40625 L 109.398438 96.054688 L 0 96.054688 Z M 0 0.40625 " clip-rule="nonzero"/></clipPath><clipPath id="1fb47a78b3"><path d="M 54.742188 96.054688 L 0.0859375 0.40625 L 109.398438 0.40625 Z M 54.742188 96.054688 " clip-rule="nonzero"/></clipPath><clipPath id="534dbc519c"><rect x="0" width="110" y="0" height="97"/></clipPath><clipPath id="dc98ab285b"><path d="M 233.421875 198.414062 L 342.890625 198.414062 L 342.890625 294.0625 L 233.421875 294.0625 Z M 233.421875 198.414062 " clip-rule="nonzero"/></clipPath><clipPath id="ba3c4ca46c"><path d="M 288.078125 198.414062 L 342.730469 294.0625 L 233.421875 294.0625 Z M 288.078125 198.414062 " clip-rule="nonzero"/></clipPath><clipPath id="a345c54be2"><path d="M 0.421875 0.414062 L 109.890625 0.414062 L 109.890625 96.0625 L 0.421875 96.0625 Z M 0.421875 0.414062 " clip-rule="nonzero"/></clipPath><clipPath id="57fc09fae3"><path d="M 55.078125 0.414062 L 109.730469 96.0625 L 0.421875 96.0625 Z M 55.078125 0.414062 " clip-rule="nonzero"/></clipPath><clipPath id="b86c1e5b0a"><rect x="0" width="110" y="0" height="97"/></clipPath><clipPath id="61a161ec37"><path d="M 175.046875 99.292969 L 284.515625 99.292969 L 284.515625 194.941406 L 175.046875 194.941406 Z M 175.046875 99.292969 " clip-rule="nonzero"/></clipPath><clipPath id="13381aa064"><path d="M 229.703125 99.292969 L 284.355469 194.941406 L 175.046875 194.941406 Z M 229.703125 99.292969 " clip-rule="nonzero"/></clipPath><clipPath id="6f9d1ef19c"><path d="M 0.046875 0.292969 L 109.464844 0.292969 L 109.464844 95.941406 L 0.046875 95.941406 Z M 0.046875 0.292969 " clip-rule="nonzero"/></clipPath><clipPath id="7dc60796d9"><path d="M 54.703125 0.292969 L 109.355469 95.941406 L 0.046875 95.941406 Z M 54.703125 0.292969 " clip-rule="nonzero"/></clipPath><clipPath id="2161ccb027"><rect x="0" width="110" y="0" height="96"/></clipPath><clipPath id="3d79002a11"><path d="M 116.578125 99.285156 L 226.046875 99.285156 L 226.046875 194.933594 L 116.578125 194.933594 Z M 116.578125 99.285156 " clip-rule="nonzero"/></clipPath><clipPath id="2f7e236fbb"><path d="M 171.394531 194.933594 L 116.738281 99.285156 L 226.046875 99.285156 Z M 171.394531 194.933594 " clip-rule="nonzero"/></clipPath><clipPath id="6012c1c6c5"><path d="M 0.710938 0.285156 L 110.046875 0.285156 L 110.046875 95.933594 L 0.710938 95.933594 Z M 0.710938 0.285156 " clip-rule="nonzero"/></clipPath><clipPath id="bc83fce81c"><path d="M 55.394531 95.933594 L 0.738281 0.285156 L 110.046875 0.285156 Z M 55.394531 95.933594 " clip-rule="nonzero"/></clipPath><clipPath id="6bcef29e5d"><rect x="0" width="111" y="0" height="96"/></clipPath><clipPath id="c709ceb480"><path d="M 58.347656 99.292969 L 167.820312 99.292969 L 167.820312 194.941406 L 58.347656 194.941406 Z M 58.347656 99.292969 " clip-rule="nonzero"/></clipPath><clipPath id="c17529c4ce"><path d="M 113.003906 99.292969 L 167.660156 194.941406 L 58.347656 194.941406 Z M 113.003906 99.292969 " clip-rule="nonzero"/></clipPath><clipPath id="219b7f3d67"><path d="M 0.347656 0.292969 L 109.753906 0.292969 L 109.753906 95.941406 L 0.347656 95.941406 Z M 0.347656 0.292969 " clip-rule="nonzero"/></clipPath><clipPath id="f5a0db1b8e"><path d="M 55.003906 0.292969 L 109.660156 95.941406 L 0.347656 95.941406 Z M 55.003906 0.292969 " clip-rule="nonzero"/></clipPath><clipPath id="8243810acb"><rect x="0" width="110" y="0" height="96"/></clipPath><clipPath id="da22a0434c"><path d="M 116.699219 0.0898438 L 226.167969 0.0898438 L 226.167969 95.734375 L 116.699219 95.734375 Z M 116.699219 0.0898438 " clip-rule="nonzero"/></clipPath><clipPath id="9c79fa1e22"><path d="M 171.351562 0.0898438 L 226.007812 95.734375 L 116.699219 95.734375 Z M 171.351562 0.0898438 " clip-rule="nonzero"/></clipPath><clipPath id="e5101d6be6"><path d="M 0.699219 0.0898438 L 110.167969 0.0898438 L 110.167969 95.734375 L 0.699219 95.734375 Z M 0.699219 0.0898438 " clip-rule="nonzero"/></clipPath><clipPath id="7d3540c103"><path d="M 55.351562 0.0898438 L 110.007812 95.734375 L 0.699219 95.734375 Z M 55.351562 0.0898438 " clip-rule="nonzero"/></clipPath><clipPath id="093b81ac37"><rect x="0" width="111" y="0" height="96"/></clipPath></defs><g clip-path="url(#95b3d2521b)"><g clip-path="url(#b8df846d29)"><g transform="matrix(1, 0, 0, 1, 0, 198)"><g clip-path="url(#462d86ccc6)"><g clip-path="url(#024d21ca0c)"><g clip-path="url(#f81d21c414)"><path fill="#3f6ab2" d="M 0 0.414062 L 109.46875 0.414062 L 109.46875 96.0625 L 0 96.0625 Z M 0 0.414062 " fill-opacity="1" fill-rule="nonzero"/></g></g></g></g></g></g><g clip-path="url(#f29848aad2)"><g clip-path="url(#b609e84f6e)"><g transform="matrix(1, 0, 0, 1, 58, 198)"><g clip-path="url(#02ab2d9e7a)"><g clip-path="url(#d024324500)"><g clip-path="url(#c3a45261d3)"><path fill="#6886c7" d="M 109.699219 96.054688 L 0.230469 96.054688 L 0.230469 0.40625 L 109.699219 0.40625 Z M 109.699219 96.054688 " fill-opacity="1" fill-rule="nonzero"/></g></g></g></g></g></g><g clip-path="url(#c063dcf679)"><g clip-path="url(#e5f6507cbb)"><g transform="matrix(1, 0, 0, 1, 116, 198)"><g clip-path="url(#8bfa3a7560)"><g clip-path="url(#159b6a24c0)"><g clip-path="url(#95875d0328)"><path fill="#b7cce2" d="M 0.699219 0.414062 L 110.167969 0.414062 L 110.167969 96.0625 L 0.699219 96.0625 Z M 0.699219 0.414062 " fill-opacity="1" fill-rule="nonzero"/></g></g></g></g></g></g><g clip-path="url(#29772106fc)"><g clip-path="url(#046bbfae55)"><g transform="matrix(1, 0, 0, 1, 175, 198)"><g clip-path="url(#534dbc519c)"><g clip-path="url(#c40ff5f720)"><g clip-path="url(#1fb47a78b3)"><path fill="#e1ecfb" d="M 109.398438 96.054688 L -0.0742188 96.054688 L -0.0742188 0.40625 L 109.398438 0.40625 Z M 109.398438 96.054688 " fill-opacity="1" fill-rule="nonzero"/></g></g></g></g></g></g><g clip-path="url(#dc98ab285b)"><g clip-path="url(#ba3c4ca46c)"><g transform="matrix(1, 0, 0, 1, 233, 198)"><g clip-path="url(#b86c1e5b0a)"><g clip-path="url(#a345c54be2)"><g clip-path="url(#57fc09fae3)"><path fill="#3f6ab2" d="M 0.421875 0.414062 L 109.890625 0.414062 L 109.890625 96.0625 L 0.421875 96.0625 Z M 0.421875 0.414062 " fill-opacity="1" fill-rule="nonzero"/></g></g></g></g></g></g><g clip-path="url(#61a161ec37)"><g clip-path="url(#13381aa064)"><g transform="matrix(1, 0, 0, 1, 175, 99)"><g clip-path="url(#2161ccb027)"><g clip-path="url(#6f9d1ef19c)"><g clip-path="url(#7dc60796d9)"><path fill="#5e88e3" d="M 0.046875 0.292969 L 109.515625 0.292969 L 109.515625 95.941406 L 0.046875 95.941406 Z M 0.046875 0.292969 " fill-opacity="1" fill-rule="nonzero"/></g></g></g></g></g></g><g clip-path="url(#3d79002a11)"><g clip-path="url(#2f7e236fbb)"><g transform="matrix(1, 0, 0, 1, 116, 99)"><g clip-path="url(#6bcef29e5d)"><g clip-path="url(#6012c1c6c5)"><g clip-path="url(#bc83fce81c)"><path fill="#b7cce2" d="M 110.046875 95.933594 L 0.578125 95.933594 L 0.578125 0.285156 L 110.046875 0.285156 Z M 110.046875 95.933594 " fill-opacity="1" fill-rule="nonzero"/></g></g></g></g></g></g><g clip-path="url(#c709ceb480)"><g clip-path="url(#c17529c4ce)"><g transform="matrix(1, 0, 0, 1, 58, 99)"><g clip-path="url(#8243810acb)"><g clip-path="url(#219b7f3d67)"><g clip-path="url(#f5a0db1b8e)"><path fill="#e1ecfb" d="M 0.347656 0.292969 L 109.820312 0.292969 L 109.820312 95.941406 L 0.347656 95.941406 Z M 0.347656 0.292969 " fill-opacity="1" fill-rule="nonzero"/></g></g></g></g></g></g><g clip-path="url(#da22a0434c)"><g clip-path="url(#9c79fa1e22)"><g transform="matrix(1, 0, 0, 1, 116, -0.000000000000018999)"><g clip-path="url(#093b81ac37)"><g clip-path="url(#e5101d6be6)"><g clip-path="url(#7d3540c103)"><path fill="#e1ecfb" d="M 0.699219 0.0898438 L 110.167969 0.0898438 L 110.167969 95.734375 L 0.699219 95.734375 Z M 0.699219 0.0898438 " fill-opacity="1" fill-rule="nonzero"/></g></g></g></g></g></g></svg>