<svg xmlns="http://www.w3.org/2000/svg" xmlns:xlink="http://www.w3.org/1999/xlink" width="1406" zoomAndPan="magnify" viewBox="0 0 1054.5 383.999986" height="512" preserveAspectRatio="xMidYMid meet" version="1.0"><defs><g/><clipPath id="a1e767cffd"><path d="M 38.621094 209.5625 L 117.8125 209.5625 L 117.8125 278.753906 L 38.621094 278.753906 Z M 38.621094 209.5625 " clip-rule="nonzero"/></clipPath><clipPath id="7a56e67032"><path d="M 78.160156 209.5625 L 117.699219 278.753906 L 38.621094 278.753906 Z M 78.160156 209.5625 " clip-rule="nonzero"/></clipPath><clipPath id="325c7d4ab7"><path d="M 0.621094 0.5625 L 79.785156 0.5625 L 79.785156 69.753906 L 0.621094 69.753906 Z M 0.621094 0.5625 " clip-rule="nonzero"/></clipPath><clipPath id="e0b5abe374"><path d="M 40.160156 0.5625 L 79.699219 69.753906 L 0.621094 69.753906 Z M 40.160156 0.5625 " clip-rule="nonzero"/></clipPath><clipPath id="d1b9ba41cf"><rect x="0" width="80" y="0" height="70"/></clipPath><clipPath id="a98ae93639"><path d="M 80.746094 209.558594 L 159.9375 209.558594 L 159.9375 278.753906 L 80.746094 278.753906 Z M 80.746094 209.558594 " clip-rule="nonzero"/></clipPath><clipPath id="fcb83501e6"><path d="M 120.402344 278.753906 L 80.863281 209.558594 L 159.9375 209.558594 Z M 120.402344 278.753906 " clip-rule="nonzero"/></clipPath><clipPath id="36403595d4"><path d="M 0.839844 0.558594 L 79.9375 0.558594 L 79.9375 69.753906 L 0.839844 69.753906 Z M 0.839844 0.558594 " clip-rule="nonzero"/></clipPath><clipPath id="1231ae8549"><path d="M 40.402344 69.753906 L 0.863281 0.558594 L 79.9375 0.558594 Z M 40.402344 69.753906 " clip-rule="nonzero"/></clipPath><clipPath id="b3cb47c963"><rect x="0" width="80" y="0" height="70"/></clipPath><clipPath id="a2a7acf6a4"><path d="M 123.042969 209.5625 L 202.238281 209.5625 L 202.238281 278.753906 L 123.042969 278.753906 Z M 123.042969 209.5625 " clip-rule="nonzero"/></clipPath><clipPath id="ee900354e4"><path d="M 162.582031 209.5625 L 202.121094 278.753906 L 123.042969 278.753906 Z M 162.582031 209.5625 " clip-rule="nonzero"/></clipPath><clipPath id="d0ae2fc14e"><path d="M 0.0429688 0.5625 L 79.222656 0.5625 L 79.222656 69.753906 L 0.0429688 69.753906 Z M 0.0429688 0.5625 " clip-rule="nonzero"/></clipPath><clipPath id="414468ffcf"><path d="M 39.582031 0.5625 L 79.121094 69.753906 L 0.0429688 69.753906 Z M 39.582031 0.5625 " clip-rule="nonzero"/></clipPath><clipPath id="985c956143"><rect x="0" width="80" y="0" height="70"/></clipPath><clipPath id="bff773ce6b"><path d="M 165.167969 209.558594 L 244.363281 209.558594 L 244.363281 278.753906 L 165.167969 278.753906 Z M 165.167969 209.558594 " clip-rule="nonzero"/></clipPath><clipPath id="3c49436b77"><path d="M 204.824219 278.753906 L 165.285156 209.558594 L 244.363281 209.558594 Z M 204.824219 278.753906 " clip-rule="nonzero"/></clipPath><clipPath id="43805f56e1"><path d="M 0.28125 0.558594 L 79.363281 0.558594 L 79.363281 69.753906 L 0.28125 69.753906 Z M 0.28125 0.558594 " clip-rule="nonzero"/></clipPath><clipPath id="9eba3e8574"><path d="M 39.824219 69.753906 L 0.285156 0.558594 L 79.363281 0.558594 Z M 39.824219 69.753906 " clip-rule="nonzero"/></clipPath><clipPath id="eee119afc7"><rect x="0" width="80" y="0" height="70"/></clipPath><clipPath id="8c16f1ba43"><path d="M 207.484375 209.5625 L 286.679688 209.5625 L 286.679688 278.753906 L 207.484375 278.753906 Z M 207.484375 209.5625 " clip-rule="nonzero"/></clipPath><clipPath id="6128a434c8"><path d="M 247.023438 209.5625 L 286.5625 278.753906 L 207.484375 278.753906 Z M 247.023438 209.5625 " clip-rule="nonzero"/></clipPath><clipPath id="abd623a902"><path d="M 0.484375 0.5625 L 79.664062 0.5625 L 79.664062 69.753906 L 0.484375 69.753906 Z M 0.484375 0.5625 " clip-rule="nonzero"/></clipPath><clipPath id="1c4e962b48"><path d="M 40.023438 0.5625 L 79.5625 69.753906 L 0.484375 69.753906 Z M 40.023438 0.5625 " clip-rule="nonzero"/></clipPath><clipPath id="61fb7a0dc5"><rect x="0" width="80" y="0" height="70"/></clipPath><clipPath id="fda3239bfa"><path d="M 165.253906 137.855469 L 244.449219 137.855469 L 244.449219 207.046875 L 165.253906 207.046875 Z M 165.253906 137.855469 " clip-rule="nonzero"/></clipPath><clipPath id="009ebcf0d3"><path d="M 204.792969 137.855469 L 244.332031 207.046875 L 165.253906 207.046875 Z M 204.792969 137.855469 " clip-rule="nonzero"/></clipPath><clipPath id="9cafbd18d9"><path d="M 0.253906 0.855469 L 79.445312 0.855469 L 79.445312 70.046875 L 0.253906 70.046875 Z M 0.253906 0.855469 " clip-rule="nonzero"/></clipPath><clipPath id="d953a7d94e"><path d="M 39.792969 0.855469 L 79.332031 70.046875 L 0.253906 70.046875 Z M 39.792969 0.855469 " clip-rule="nonzero"/></clipPath><clipPath id="e4ac517b47"><rect x="0" width="80" y="0" height="71"/></clipPath><clipPath id="0f0e6720cd"><path d="M 123 137.851562 L 202.152344 137.851562 L 202.152344 207.046875 L 123 207.046875 Z M 123 137.851562 " clip-rule="nonzero"/></clipPath><clipPath id="780e8e274b"><path d="M 162.613281 207.046875 L 123.074219 137.851562 L 202.152344 137.851562 Z M 162.613281 207.046875 " clip-rule="nonzero"/></clipPath><clipPath id="199fb8f9b2"><path d="M 0.0625 0.851562 L 79.152344 0.851562 L 79.152344 70.046875 L 0.0625 70.046875 Z M 0.0625 0.851562 " clip-rule="nonzero"/></clipPath><clipPath id="2ec24414c7"><path d="M 39.613281 70.046875 L 0.0742188 0.851562 L 79.152344 0.851562 Z M 39.613281 70.046875 " clip-rule="nonzero"/></clipPath><clipPath id="6f0e24805c"><rect x="0" width="80" y="0" height="71"/></clipPath><clipPath id="abd40aa343"><path d="M 80.832031 137.855469 L 160 137.855469 L 160 207.046875 L 80.832031 207.046875 Z M 80.832031 137.855469 " clip-rule="nonzero"/></clipPath><clipPath id="45b1c7743e"><path d="M 120.371094 137.855469 L 159.910156 207.046875 L 80.832031 207.046875 Z M 120.371094 137.855469 " clip-rule="nonzero"/></clipPath><clipPath id="ad09fac2c9"><path d="M 0.832031 0.855469 L 80 0.855469 L 80 70.046875 L 0.832031 70.046875 Z M 0.832031 0.855469 " clip-rule="nonzero"/></clipPath><clipPath id="8c67787517"><path d="M 40.371094 0.855469 L 79.910156 70.046875 L 0.832031 70.046875 Z M 40.371094 0.855469 " clip-rule="nonzero"/></clipPath><clipPath id="15fa125e7b"><rect x="0" width="80" y="0" height="71"/></clipPath><clipPath id="d8710e748d"><path d="M 123.042969 66.089844 L 202.238281 66.089844 L 202.238281 135.28125 L 123.042969 135.28125 Z M 123.042969 66.089844 " clip-rule="nonzero"/></clipPath><clipPath id="d8f0a56260"><path d="M 162.582031 66.089844 L 202.121094 135.28125 L 123.042969 135.28125 Z M 162.582031 66.089844 " clip-rule="nonzero"/></clipPath><clipPath id="cc35430c03"><path d="M 0.0429688 0.0898438 L 79.222656 0.0898438 L 79.222656 69.28125 L 0.0429688 69.28125 Z M 0.0429688 0.0898438 " clip-rule="nonzero"/></clipPath><clipPath id="38228dc65b"><path d="M 39.582031 0.0898438 L 79.121094 69.28125 L 0.0429688 69.28125 Z M 39.582031 0.0898438 " clip-rule="nonzero"/></clipPath><clipPath id="c91b95b5a2"><rect x="0" width="80" y="0" height="70"/></clipPath><clipPath id="3101949e6a"><rect x="0" width="688" y="0" height="272"/></clipPath><clipPath id="4746f944d2"><rect x="0" width="986" y="0" height="75"/></clipPath></defs><g clip-path="url(#a1e767cffd)"><g clip-path="url(#7a56e67032)"><g transform="matrix(1, 0, 0, 1, 38, 209)"><g clip-path="url(#d1b9ba41cf)"><g clip-path="url(#325c7d4ab7)"><g clip-path="url(#e0b5abe374)"><path fill="#3f6ab2" d="M 0.621094 0.5625 L 79.8125 0.5625 L 79.8125 69.753906 L 0.621094 69.753906 Z M 0.621094 0.5625 " fill-opacity="1" fill-rule="nonzero"/></g></g></g></g></g></g><g clip-path="url(#a98ae93639)"><g clip-path="url(#fcb83501e6)"><g transform="matrix(1, 0, 0, 1, 80, 209)"><g clip-path="url(#b3cb47c963)"><g clip-path="url(#36403595d4)"><g clip-path="url(#1231ae8549)"><path fill="#6886c7" d="M 79.9375 69.753906 L 0.746094 69.753906 L 0.746094 0.558594 L 79.9375 0.558594 Z M 79.9375 69.753906 " fill-opacity="1" fill-rule="nonzero"/></g></g></g></g></g></g><g clip-path="url(#a2a7acf6a4)"><g clip-path="url(#ee900354e4)"><g transform="matrix(1, 0, 0, 1, 123, 209)"><g clip-path="url(#985c956143)"><g clip-path="url(#d0ae2fc14e)"><g clip-path="url(#414468ffcf)"><path fill="#b7cce2" d="M 0.0429688 0.5625 L 79.238281 0.5625 L 79.238281 69.753906 L 0.0429688 69.753906 Z M 0.0429688 0.5625 " fill-opacity="1" fill-rule="nonzero"/></g></g></g></g></g></g><g clip-path="url(#bff773ce6b)"><g clip-path="url(#3c49436b77)"><g transform="matrix(1, 0, 0, 1, 165, 209)"><g clip-path="url(#eee119afc7)"><g clip-path="url(#43805f56e1)"><g clip-path="url(#9eba3e8574)"><path fill="#e1ecfb" d="M 79.363281 69.753906 L 0.167969 69.753906 L 0.167969 0.558594 L 79.363281 0.558594 Z M 79.363281 69.753906 " fill-opacity="1" fill-rule="nonzero"/></g></g></g></g></g></g><g clip-path="url(#8c16f1ba43)"><g clip-path="url(#6128a434c8)"><g transform="matrix(1, 0, 0, 1, 207, 209)"><g clip-path="url(#61fb7a0dc5)"><g clip-path="url(#abd623a902)"><g clip-path="url(#1c4e962b48)"><path fill="#3f6ab2" d="M 0.484375 0.5625 L 79.679688 0.5625 L 79.679688 69.753906 L 0.484375 69.753906 Z M 0.484375 0.5625 " fill-opacity="1" fill-rule="nonzero"/></g></g></g></g></g></g><g clip-path="url(#fda3239bfa)"><g clip-path="url(#009ebcf0d3)"><g transform="matrix(1, 0, 0, 1, 165, 137)"><g clip-path="url(#e4ac517b47)"><g clip-path="url(#9cafbd18d9)"><g clip-path="url(#d953a7d94e)"><path fill="#5e88e3" d="M 0.253906 0.855469 L 79.449219 0.855469 L 79.449219 70.046875 L 0.253906 70.046875 Z M 0.253906 0.855469 " fill-opacity="1" fill-rule="nonzero"/></g></g></g></g></g></g><g clip-path="url(#0f0e6720cd)"><g clip-path="url(#780e8e274b)"><g transform="matrix(1, 0, 0, 1, 123, 137)"><g clip-path="url(#6f0e24805c)"><g clip-path="url(#199fb8f9b2)"><g clip-path="url(#2ec24414c7)"><path fill="#b7cce2" d="M 79.152344 70.046875 L -0.0429688 70.046875 L -0.0429688 0.851562 L 79.152344 0.851562 Z M 79.152344 70.046875 " fill-opacity="1" fill-rule="nonzero"/></g></g></g></g></g></g><g clip-path="url(#abd40aa343)"><g clip-path="url(#45b1c7743e)"><g transform="matrix(1, 0, 0, 1, 80, 137)"><g clip-path="url(#15fa125e7b)"><g clip-path="url(#ad09fac2c9)"><g clip-path="url(#8c67787517)"><path fill="#e1ecfb" d="M 0.832031 0.855469 L 80.023438 0.855469 L 80.023438 70.046875 L 0.832031 70.046875 Z M 0.832031 0.855469 " fill-opacity="1" fill-rule="nonzero"/></g></g></g></g></g></g><g clip-path="url(#d8710e748d)"><g clip-path="url(#d8f0a56260)"><g transform="matrix(1, 0, 0, 1, 123, 66)"><g clip-path="url(#c91b95b5a2)"><g clip-path="url(#cc35430c03)"><g clip-path="url(#38228dc65b)"><path fill="#e1ecfb" d="M 0.0429688 0.0898438 L 79.238281 0.0898438 L 79.238281 69.28125 L 0.0429688 69.28125 Z M 0.0429688 0.0898438 " fill-opacity="1" fill-rule="nonzero"/></g></g></g></g></g></g><g transform="matrix(1, 0, 0, 1, 308, 45)"><g clip-path="url(#3101949e6a)"><g fill="#000000" fill-opacity="1"><g transform="translate(0.957145, 112.977325)"><g><path d="M 42.203125 0.75 C 35.128906 0.75 28.644531 -0.890625 22.75 -4.171875 C 16.863281 -7.460938 12.1875 -12.050781 8.71875 -17.9375 C 5.257812 -23.832031 3.53125 -30.457031 3.53125 -37.8125 C 3.53125 -45.164062 5.257812 -51.769531 8.71875 -57.625 C 12.1875 -63.476562 16.863281 -68.046875 22.75 -71.328125 C 28.644531 -74.617188 35.128906 -76.265625 42.203125 -76.265625 C 49.273438 -76.265625 55.753906 -74.617188 61.640625 -71.328125 C 67.535156 -68.046875 72.175781 -63.476562 75.5625 -57.625 C 78.957031 -51.769531 80.65625 -45.164062 80.65625 -37.8125 C 80.65625 -30.457031 78.941406 -23.832031 75.515625 -17.9375 C 72.085938 -12.050781 67.445312 -7.460938 61.59375 -4.171875 C 55.738281 -0.890625 49.273438 0.75 42.203125 0.75 Z M 42.203125 -15.953125 C 48.203125 -15.953125 53.003906 -17.953125 56.609375 -21.953125 C 60.210938 -25.953125 62.015625 -31.238281 62.015625 -37.8125 C 62.015625 -44.445312 60.210938 -49.742188 56.609375 -53.703125 C 53.003906 -57.671875 48.203125 -59.65625 42.203125 -59.65625 C 36.128906 -59.65625 31.289062 -57.691406 27.6875 -53.765625 C 24.082031 -49.835938 22.28125 -44.519531 22.28125 -37.8125 C 22.28125 -31.164062 24.082031 -25.859375 27.6875 -21.890625 C 31.289062 -17.929688 36.128906 -15.953125 42.203125 -15.953125 Z M 42.203125 -15.953125 "/></g></g></g><g fill="#000000" fill-opacity="1"><g transform="translate(85.139249, 112.977325)"><g><path d="M 60.734375 -75.1875 L 60.734375 -60.515625 L 40.8125 -60.515625 L 40.8125 0 L 22.5 0 L 22.5 -60.515625 L 2.578125 -60.515625 L 2.578125 -75.1875 Z M 60.734375 -75.1875 "/></g></g></g><g fill="#000000" fill-opacity="1"><g transform="translate(148.436483, 112.977325)"><g><path d="M 71.765625 -75.1875 L 71.765625 0 L 53.453125 0 L 53.453125 -30.953125 L 24.953125 -30.953125 L 24.953125 0 L 6.640625 0 L 6.640625 -75.1875 L 24.953125 -75.1875 L 24.953125 -45.734375 L 53.453125 -45.734375 L 53.453125 -75.1875 Z M 71.765625 -75.1875 "/></g></g></g><g fill="#000000" fill-opacity="1"><g transform="translate(226.727986, 112.977325)"><g><path d="M 42.203125 0.75 C 35.128906 0.75 28.644531 -0.890625 22.75 -4.171875 C 16.863281 -7.460938 12.1875 -12.050781 8.71875 -17.9375 C 5.257812 -23.832031 3.53125 -30.457031 3.53125 -37.8125 C 3.53125 -45.164062 5.257812 -51.769531 8.71875 -57.625 C 12.1875 -63.476562 16.863281 -68.046875 22.75 -71.328125 C 28.644531 -74.617188 35.128906 -76.265625 42.203125 -76.265625 C 49.273438 -76.265625 55.753906 -74.617188 61.640625 -71.328125 C 67.535156 -68.046875 72.175781 -63.476562 75.5625 -57.625 C 78.957031 -51.769531 80.65625 -45.164062 80.65625 -37.8125 C 80.65625 -30.457031 78.941406 -23.832031 75.515625 -17.9375 C 72.085938 -12.050781 67.445312 -7.460938 61.59375 -4.171875 C 55.738281 -0.890625 49.273438 0.75 42.203125 0.75 Z M 42.203125 -15.953125 C 48.203125 -15.953125 53.003906 -17.953125 56.609375 -21.953125 C 60.210938 -25.953125 62.015625 -31.238281 62.015625 -37.8125 C 62.015625 -44.445312 60.210938 -49.742188 56.609375 -53.703125 C 53.003906 -57.671875 48.203125 -59.65625 42.203125 -59.65625 C 36.128906 -59.65625 31.289062 -57.691406 27.6875 -53.765625 C 24.082031 -49.835938 22.28125 -44.519531 22.28125 -37.8125 C 22.28125 -31.164062 24.082031 -25.859375 27.6875 -21.890625 C 31.289062 -17.929688 36.128906 -15.953125 42.203125 -15.953125 Z M 42.203125 -15.953125 "/></g></g></g><g fill="#000000" fill-opacity="1"><g transform="translate(0.957145, 234.350311)"><g><path d="M 24.953125 -60.515625 L 24.953125 -45.3125 L 49.484375 -45.3125 L 49.484375 -31.171875 L 24.953125 -31.171875 L 24.953125 -14.671875 L 52.703125 -14.671875 L 52.703125 0 L 6.640625 0 L 6.640625 -75.1875 L 52.703125 -75.1875 L 52.703125 -60.515625 Z M 24.953125 -60.515625 "/></g></g></g><g fill="#000000" fill-opacity="1"><g transform="translate(58.899286, 234.350311)"><g><path d="M 33.84375 0.75 C 28.34375 0.75 23.414062 -0.140625 19.0625 -1.921875 C 14.707031 -3.710938 11.226562 -6.359375 8.625 -9.859375 C 6.019531 -13.359375 4.644531 -17.570312 4.5 -22.5 L 24 -22.5 C 24.28125 -19.707031 25.238281 -17.578125 26.875 -16.109375 C 28.519531 -14.648438 30.664062 -13.921875 33.3125 -13.921875 C 36.019531 -13.921875 38.160156 -14.546875 39.734375 -15.796875 C 41.304688 -17.046875 42.09375 -18.78125 42.09375 -21 C 42.09375 -22.851562 41.46875 -24.382812 40.21875 -25.59375 C 38.96875 -26.8125 37.429688 -27.8125 35.609375 -28.59375 C 33.785156 -29.382812 31.195312 -30.28125 27.84375 -31.28125 C 22.988281 -32.78125 19.023438 -34.28125 15.953125 -35.78125 C 12.890625 -37.28125 10.25 -39.492188 8.03125 -42.421875 C 5.820312 -45.347656 4.71875 -49.164062 4.71875 -53.875 C 4.71875 -60.875 7.25 -66.351562 12.3125 -70.3125 C 17.382812 -74.28125 23.988281 -76.265625 32.125 -76.265625 C 40.414062 -76.265625 47.09375 -74.28125 52.15625 -70.3125 C 57.226562 -66.351562 59.941406 -60.835938 60.296875 -53.765625 L 40.484375 -53.765625 C 40.335938 -56.191406 39.441406 -58.101562 37.796875 -59.5 C 36.160156 -60.894531 34.054688 -61.59375 31.484375 -61.59375 C 29.273438 -61.59375 27.488281 -61 26.125 -59.8125 C 24.769531 -58.632812 24.09375 -56.941406 24.09375 -54.734375 C 24.09375 -52.304688 25.234375 -50.410156 27.515625 -49.046875 C 29.804688 -47.691406 33.378906 -46.234375 38.234375 -44.671875 C 43.085938 -43.023438 47.03125 -41.453125 50.0625 -39.953125 C 53.101562 -38.453125 55.726562 -36.273438 57.9375 -33.421875 C 60.15625 -30.566406 61.265625 -26.890625 61.265625 -22.390625 C 61.265625 -18.097656 60.175781 -14.203125 58 -10.703125 C 55.820312 -7.210938 52.660156 -4.429688 48.515625 -2.359375 C 44.378906 -0.285156 39.488281 0.75 33.84375 0.75 Z M 33.84375 0.75 "/></g></g></g><g fill="#000000" fill-opacity="1"><g transform="translate(124.766968, 234.350311)"><g><path d="M 3.53125 -37.703125 C 3.53125 -45.128906 5.132812 -51.75 8.34375 -57.5625 C 11.5625 -63.382812 16.046875 -67.921875 21.796875 -71.171875 C 27.546875 -74.421875 34.0625 -76.046875 41.34375 -76.046875 C 50.269531 -76.046875 57.910156 -73.6875 64.265625 -68.96875 C 70.617188 -64.257812 74.867188 -57.835938 77.015625 -49.703125 L 56.875 -49.703125 C 55.375 -52.835938 53.25 -55.226562 50.5 -56.875 C 47.75 -58.519531 44.625 -59.34375 41.125 -59.34375 C 35.488281 -59.34375 30.921875 -57.378906 27.421875 -53.453125 C 23.921875 -49.523438 22.171875 -44.273438 22.171875 -37.703125 C 22.171875 -31.128906 23.921875 -25.878906 27.421875 -21.953125 C 30.921875 -18.023438 35.488281 -16.0625 41.125 -16.0625 C 44.625 -16.0625 47.75 -16.882812 50.5 -18.53125 C 53.25 -20.175781 55.375 -22.566406 56.875 -25.703125 L 77.015625 -25.703125 C 74.867188 -17.566406 70.617188 -11.160156 64.265625 -6.484375 C 57.910156 -1.804688 50.269531 0.53125 41.34375 0.53125 C 34.0625 0.53125 27.546875 -1.09375 21.796875 -4.34375 C 16.046875 -7.59375 11.5625 -12.109375 8.34375 -17.890625 C 5.132812 -23.671875 3.53125 -30.273438 3.53125 -37.703125 Z M 3.53125 -37.703125 "/></g></g></g><g fill="#000000" fill-opacity="1"><g transform="translate(206.378637, 234.350311)"><g><path d="M 24.640625 -75.1875 L 24.640625 -30.203125 C 24.640625 -25.703125 25.742188 -22.238281 27.953125 -19.8125 C 30.171875 -17.382812 33.421875 -16.171875 37.703125 -16.171875 C 41.984375 -16.171875 45.265625 -17.382812 47.546875 -19.8125 C 49.835938 -22.238281 50.984375 -25.703125 50.984375 -30.203125 L 50.984375 -75.1875 L 69.296875 -75.1875 L 69.296875 -30.3125 C 69.296875 -23.601562 67.867188 -17.925781 65.015625 -13.28125 C 62.160156 -8.632812 58.320312 -5.132812 53.5 -2.78125 C 48.675781 -0.425781 43.300781 0.75 37.375 0.75 C 31.445312 0.75 26.144531 -0.410156 21.46875 -2.734375 C 16.789062 -5.054688 13.09375 -8.554688 10.375 -13.234375 C 7.664062 -17.910156 6.3125 -23.601562 6.3125 -30.3125 L 6.3125 -75.1875 Z M 24.640625 -75.1875 "/></g></g></g><g fill="#000000" fill-opacity="1"><g transform="translate(281.885484, 234.350311)"><g><path d="M 24.953125 -14.140625 L 48.953125 -14.140625 L 48.953125 0 L 6.640625 0 L 6.640625 -75.1875 L 24.953125 -75.1875 Z M 24.953125 -14.140625 "/></g></g></g><g fill="#000000" fill-opacity="1"><g transform="translate(332.973103, 234.350311)"><g><path d="M 60.734375 -75.1875 L 60.734375 -60.515625 L 40.8125 -60.515625 L 40.8125 0 L 22.5 0 L 22.5 -60.515625 L 2.578125 -60.515625 L 2.578125 -75.1875 Z M 60.734375 -75.1875 "/></g></g></g><g fill="#000000" fill-opacity="1"><g transform="translate(396.270336, 234.350311)"><g><path d="M 24.640625 -75.1875 L 24.640625 -30.203125 C 24.640625 -25.703125 25.742188 -22.238281 27.953125 -19.8125 C 30.171875 -17.382812 33.421875 -16.171875 37.703125 -16.171875 C 41.984375 -16.171875 45.265625 -17.382812 47.546875 -19.8125 C 49.835938 -22.238281 50.984375 -25.703125 50.984375 -30.203125 L 50.984375 -75.1875 L 69.296875 -75.1875 L 69.296875 -30.3125 C 69.296875 -23.601562 67.867188 -17.925781 65.015625 -13.28125 C 62.160156 -8.632812 58.320312 -5.132812 53.5 -2.78125 C 48.675781 -0.425781 43.300781 0.75 37.375 0.75 C 31.445312 0.75 26.144531 -0.410156 21.46875 -2.734375 C 16.789062 -5.054688 13.09375 -8.554688 10.375 -13.234375 C 7.664062 -17.910156 6.3125 -23.601562 6.3125 -30.3125 L 6.3125 -75.1875 Z M 24.640625 -75.1875 "/></g></g></g><g fill="#000000" fill-opacity="1"><g transform="translate(471.777157, 234.350311)"><g><path d="M 44.984375 0 L 29.34375 -28.390625 L 24.953125 -28.390625 L 24.953125 0 L 6.640625 0 L 6.640625 -75.1875 L 37.375 -75.1875 C 43.300781 -75.1875 48.351562 -74.148438 52.53125 -72.078125 C 56.707031 -70.015625 59.832031 -67.175781 61.90625 -63.5625 C 63.976562 -59.957031 65.015625 -55.941406 65.015625 -51.515625 C 65.015625 -46.515625 63.601562 -42.050781 60.78125 -38.125 C 57.957031 -34.195312 53.800781 -31.414062 48.3125 -29.78125 L 65.65625 0 Z M 24.953125 -41.34375 L 36.3125 -41.34375 C 39.664062 -41.34375 42.179688 -42.160156 43.859375 -43.796875 C 45.535156 -45.441406 46.375 -47.765625 46.375 -50.765625 C 46.375 -53.617188 45.535156 -55.867188 43.859375 -57.515625 C 42.179688 -59.160156 39.664062 -59.984375 36.3125 -59.984375 L 24.953125 -59.984375 Z M 24.953125 -41.34375 "/></g></g></g><g fill="#000000" fill-opacity="1"><g transform="translate(541.60765, 234.350311)"><g><path d="M 53.453125 -13.28125 L 25.390625 -13.28125 L 20.890625 0 L 1.71875 0 L 28.921875 -75.1875 L 50.125 -75.1875 L 77.328125 0 L 57.953125 0 Z M 48.734375 -27.421875 L 39.421875 -54.953125 L 30.203125 -27.421875 Z M 48.734375 -27.421875 "/></g></g></g><g fill="#000000" fill-opacity="1"><g transform="translate(620.541746, 234.350311)"><g><path d="M 33.84375 0.75 C 28.34375 0.75 23.414062 -0.140625 19.0625 -1.921875 C 14.707031 -3.710938 11.226562 -6.359375 8.625 -9.859375 C 6.019531 -13.359375 4.644531 -17.570312 4.5 -22.5 L 24 -22.5 C 24.28125 -19.707031 25.238281 -17.578125 26.875 -16.109375 C 28.519531 -14.648438 30.664062 -13.921875 33.3125 -13.921875 C 36.019531 -13.921875 38.160156 -14.546875 39.734375 -15.796875 C 41.304688 -17.046875 42.09375 -18.78125 42.09375 -21 C 42.09375 -22.851562 41.46875 -24.382812 40.21875 -25.59375 C 38.96875 -26.8125 37.429688 -27.8125 35.609375 -28.59375 C 33.785156 -29.382812 31.195312 -30.28125 27.84375 -31.28125 C 22.988281 -32.78125 19.023438 -34.28125 15.953125 -35.78125 C 12.890625 -37.28125 10.25 -39.492188 8.03125 -42.421875 C 5.820312 -45.347656 4.71875 -49.164062 4.71875 -53.875 C 4.71875 -60.875 7.25 -66.351562 12.3125 -70.3125 C 17.382812 -74.28125 23.988281 -76.265625 32.125 -76.265625 C 40.414062 -76.265625 47.09375 -74.28125 52.15625 -70.3125 C 57.226562 -66.351562 59.941406 -60.835938 60.296875 -53.765625 L 40.484375 -53.765625 C 40.335938 -56.191406 39.441406 -58.101562 37.796875 -59.5 C 36.160156 -60.894531 34.054688 -61.59375 31.484375 -61.59375 C 29.273438 -61.59375 27.488281 -61 26.125 -59.8125 C 24.769531 -58.632812 24.09375 -56.941406 24.09375 -54.734375 C 24.09375 -52.304688 25.234375 -50.410156 27.515625 -49.046875 C 29.804688 -47.691406 33.378906 -46.234375 38.234375 -44.671875 C 43.085938 -43.023438 47.03125 -41.453125 50.0625 -39.953125 C 53.101562 -38.453125 55.726562 -36.273438 57.9375 -33.421875 C 60.15625 -30.566406 61.265625 -26.890625 61.265625 -22.390625 C 61.265625 -18.097656 60.175781 -14.203125 58 -10.703125 C 55.820312 -7.210938 52.660156 -4.429688 48.515625 -2.359375 C 44.378906 -0.285156 39.488281 0.75 33.84375 0.75 Z M 33.84375 0.75 "/></g></g></g></g></g><g transform="matrix(1, 0, 0, 1, 27, 287)"><g clip-path="url(#4746f944d2)"><g fill="#000000" fill-opacity="1"><g transform="translate(0.986516, 55.392727)"><g><path d="M 28.625 -25.984375 C 28.625 -22.921875 27.578125 -20.378906 25.484375 -18.359375 C 23.390625 -16.347656 20.203125 -15.34375 15.921875 -15.34375 L 8.859375 -15.34375 L 8.859375 0 L 4.0625 0 L 4.0625 -36.734375 L 15.921875 -36.734375 C 20.066406 -36.734375 23.21875 -35.726562 25.375 -33.71875 C 27.539062 -31.71875 28.625 -29.140625 28.625 -25.984375 Z M 15.921875 -19.296875 C 18.585938 -19.296875 20.550781 -19.875 21.8125 -21.03125 C 23.082031 -22.1875 23.71875 -23.835938 23.71875 -25.984375 C 23.71875 -30.515625 21.117188 -32.78125 15.921875 -32.78125 L 8.859375 -32.78125 L 8.859375 -19.296875 Z M 15.921875 -19.296875 "/></g></g></g><g fill="#000000" fill-opacity="1"><g transform="translate(31.501166, 55.392727)"><g><path d="M 8.859375 -24.1875 C 9.703125 -25.84375 10.90625 -27.125 12.46875 -28.03125 C 14.03125 -28.945312 15.9375 -29.40625 18.1875 -29.40625 L 18.1875 -24.453125 L 16.921875 -24.453125 C 11.546875 -24.453125 8.859375 -21.535156 8.859375 -15.703125 L 8.859375 0 L 4.0625 0 L 4.0625 -28.875 L 8.859375 -28.875 Z M 8.859375 -24.1875 "/></g></g></g><g fill="#000000" fill-opacity="1"><g transform="translate(51.159136, 55.392727)"><g><path d="M 16.65625 0.46875 C 13.945312 0.46875 11.492188 -0.144531 9.296875 -1.375 C 7.109375 -2.601562 5.390625 -4.347656 4.140625 -6.609375 C 2.890625 -8.878906 2.265625 -11.507812 2.265625 -14.5 C 2.265625 -17.445312 2.90625 -20.050781 4.1875 -22.3125 C 5.46875 -24.582031 7.210938 -26.320312 9.421875 -27.53125 C 11.640625 -28.75 14.117188 -29.359375 16.859375 -29.359375 C 19.597656 -29.359375 22.070312 -28.75 24.28125 -27.53125 C 26.5 -26.320312 28.25 -24.59375 29.53125 -22.34375 C 30.820312 -20.09375 31.46875 -17.476562 31.46875 -14.5 C 31.46875 -11.507812 30.804688 -8.878906 29.484375 -6.609375 C 28.171875 -4.347656 26.390625 -2.601562 24.140625 -1.375 C 21.890625 -0.144531 19.394531 0.46875 16.65625 0.46875 Z M 16.65625 -3.734375 C 18.375 -3.734375 19.988281 -4.140625 21.5 -4.953125 C 23.007812 -5.765625 24.226562 -6.976562 25.15625 -8.59375 C 26.09375 -10.207031 26.5625 -12.175781 26.5625 -14.5 C 26.5625 -16.8125 26.101562 -18.773438 25.1875 -20.390625 C 24.28125 -22.015625 23.085938 -23.21875 21.609375 -24 C 20.128906 -24.789062 18.53125 -25.1875 16.8125 -25.1875 C 15.050781 -25.1875 13.441406 -24.789062 11.984375 -24 C 10.523438 -23.21875 9.359375 -22.015625 8.484375 -20.390625 C 7.609375 -18.773438 7.171875 -16.8125 7.171875 -14.5 C 7.171875 -12.144531 7.597656 -10.15625 8.453125 -8.53125 C 9.316406 -6.914062 10.46875 -5.710938 11.90625 -4.921875 C 13.351562 -4.128906 14.9375 -3.734375 16.65625 -3.734375 Z M 16.65625 -3.734375 "/></g></g></g><g fill="#000000" fill-opacity="1"><g transform="translate(84.888631, 55.392727)"><g><path d="M 2.265625 -14.546875 C 2.265625 -17.492188 2.859375 -20.082031 4.046875 -22.3125 C 5.242188 -24.550781 6.890625 -26.285156 8.984375 -27.515625 C 11.078125 -28.742188 13.421875 -29.359375 16.015625 -29.359375 C 18.265625 -29.359375 20.351562 -28.835938 22.28125 -27.796875 C 24.21875 -26.765625 25.695312 -25.40625 26.71875 -23.71875 L 26.71875 -39 L 31.5625 -39 L 31.5625 0 L 26.71875 0 L 26.71875 -5.421875 C 25.769531 -3.703125 24.363281 -2.289062 22.5 -1.1875 C 20.644531 -0.0820312 18.46875 0.46875 15.96875 0.46875 C 13.40625 0.46875 11.078125 -0.160156 8.984375 -1.421875 C 6.890625 -2.679688 5.242188 -4.453125 4.046875 -6.734375 C 2.859375 -9.023438 2.265625 -11.628906 2.265625 -14.546875 Z M 26.71875 -14.5 C 26.71875 -16.675781 26.273438 -18.570312 25.390625 -20.1875 C 24.515625 -21.800781 23.332031 -23.035156 21.84375 -23.890625 C 20.351562 -24.753906 18.710938 -25.1875 16.921875 -25.1875 C 15.128906 -25.1875 13.492188 -24.765625 12.015625 -23.921875 C 10.535156 -23.078125 9.359375 -21.847656 8.484375 -20.234375 C 7.609375 -18.617188 7.171875 -16.722656 7.171875 -14.546875 C 7.171875 -12.328125 7.609375 -10.398438 8.484375 -8.765625 C 9.359375 -7.140625 10.535156 -5.894531 12.015625 -5.03125 C 13.492188 -4.164062 15.128906 -3.734375 16.921875 -3.734375 C 18.710938 -3.734375 20.351562 -4.164062 21.84375 -5.03125 C 23.332031 -5.894531 24.515625 -7.140625 25.390625 -8.765625 C 26.273438 -10.398438 26.71875 -12.3125 26.71875 -14.5 Z M 26.71875 -14.5 "/></g></g></g><g fill="#000000" fill-opacity="1"><g transform="translate(120.515413, 55.392727)"><g><path d="M 29.671875 -28.875 L 29.671875 0 L 24.875 0 L 24.875 -4.265625 C 23.957031 -2.796875 22.679688 -1.644531 21.046875 -0.8125 C 19.421875 0.0078125 17.625 0.421875 15.65625 0.421875 C 13.40625 0.421875 11.382812 -0.0390625 9.59375 -0.96875 C 7.800781 -1.90625 6.382812 -3.300781 5.34375 -5.15625 C 4.3125 -7.019531 3.796875 -9.289062 3.796875 -11.96875 L 3.796875 -28.875 L 8.53125 -28.875 L 8.53125 -12.59375 C 8.53125 -9.75 9.25 -7.5625 10.6875 -6.03125 C 12.132812 -4.5 14.101562 -3.734375 16.59375 -3.734375 C 19.164062 -3.734375 21.1875 -4.523438 22.65625 -6.109375 C 24.132812 -7.691406 24.875 -9.992188 24.875 -13.015625 L 24.875 -28.875 Z M 29.671875 -28.875 "/></g></g></g><g fill="#000000" fill-opacity="1"><g transform="translate(154.244896, 55.392727)"><g><path d="M 9.90625 -24.921875 L 9.90625 -7.90625 C 9.90625 -6.5 10.203125 -5.503906 10.796875 -4.921875 C 11.398438 -4.347656 12.4375 -4.0625 13.90625 -4.0625 L 17.4375 -4.0625 L 17.4375 0 L 13.125 0 C 10.457031 0 8.453125 -0.613281 7.109375 -1.84375 C 5.773438 -3.070312 5.109375 -5.09375 5.109375 -7.90625 L 5.109375 -24.921875 L 1.375 -24.921875 L 1.375 -28.875 L 5.109375 -28.875 L 5.109375 -36.15625 L 9.90625 -36.15625 L 9.90625 -28.875 L 17.4375 -28.875 L 17.4375 -24.921875 Z M 9.90625 -24.921875 "/></g></g></g><g fill="#000000" fill-opacity="1"><g transform="translate(173.428551, 55.392727)"><g><path d="M 16.65625 0.46875 C 13.945312 0.46875 11.492188 -0.144531 9.296875 -1.375 C 7.109375 -2.601562 5.390625 -4.347656 4.140625 -6.609375 C 2.890625 -8.878906 2.265625 -11.507812 2.265625 -14.5 C 2.265625 -17.445312 2.90625 -20.050781 4.1875 -22.3125 C 5.46875 -24.582031 7.210938 -26.320312 9.421875 -27.53125 C 11.640625 -28.75 14.117188 -29.359375 16.859375 -29.359375 C 19.597656 -29.359375 22.070312 -28.75 24.28125 -27.53125 C 26.5 -26.320312 28.25 -24.59375 29.53125 -22.34375 C 30.820312 -20.09375 31.46875 -17.476562 31.46875 -14.5 C 31.46875 -11.507812 30.804688 -8.878906 29.484375 -6.609375 C 28.171875 -4.347656 26.390625 -2.601562 24.140625 -1.375 C 21.890625 -0.144531 19.394531 0.46875 16.65625 0.46875 Z M 16.65625 -3.734375 C 18.375 -3.734375 19.988281 -4.140625 21.5 -4.953125 C 23.007812 -5.765625 24.226562 -6.976562 25.15625 -8.59375 C 26.09375 -10.207031 26.5625 -12.175781 26.5625 -14.5 C 26.5625 -16.8125 26.101562 -18.773438 25.1875 -20.390625 C 24.28125 -22.015625 23.085938 -23.21875 21.609375 -24 C 20.128906 -24.789062 18.53125 -25.1875 16.8125 -25.1875 C 15.050781 -25.1875 13.441406 -24.789062 11.984375 -24 C 10.523438 -23.21875 9.359375 -22.015625 8.484375 -20.390625 C 7.609375 -18.773438 7.171875 -16.8125 7.171875 -14.5 C 7.171875 -12.144531 7.597656 -10.15625 8.453125 -8.53125 C 9.316406 -6.914062 10.46875 -5.710938 11.90625 -4.921875 C 13.351562 -4.128906 14.9375 -3.734375 16.65625 -3.734375 Z M 16.65625 -3.734375 "/></g></g></g><g fill="#000000" fill-opacity="1"><g transform="translate(207.158046, 55.392727)"><g><path d="M 14.28125 0.46875 C 12.070312 0.46875 10.085938 0.0898438 8.328125 -0.65625 C 6.566406 -1.414062 5.175781 -2.46875 4.15625 -3.8125 C 3.144531 -5.164062 2.585938 -6.722656 2.484375 -8.484375 L 7.4375 -8.484375 C 7.570312 -7.046875 8.242188 -5.867188 9.453125 -4.953125 C 10.671875 -4.035156 12.265625 -3.578125 14.234375 -3.578125 C 16.054688 -3.578125 17.492188 -3.984375 18.546875 -4.796875 C 19.597656 -5.609375 20.125 -6.628906 20.125 -7.859375 C 20.125 -9.117188 19.5625 -10.054688 18.4375 -10.671875 C 17.320312 -11.285156 15.585938 -11.890625 13.234375 -12.484375 C 11.085938 -13.046875 9.335938 -13.617188 7.984375 -14.203125 C 6.628906 -14.785156 5.46875 -15.644531 4.5 -16.78125 C 3.539062 -17.925781 3.0625 -19.429688 3.0625 -21.296875 C 3.0625 -22.765625 3.5 -24.113281 4.375 -25.34375 C 5.25 -26.570312 6.492188 -27.546875 8.109375 -28.265625 C 9.734375 -28.992188 11.582031 -29.359375 13.65625 -29.359375 C 16.851562 -29.359375 19.429688 -28.546875 21.390625 -26.921875 C 23.359375 -25.304688 24.414062 -23.097656 24.5625 -20.296875 L 19.765625 -20.296875 C 19.660156 -21.804688 19.050781 -23.015625 17.9375 -23.921875 C 16.832031 -24.835938 15.347656 -25.296875 13.484375 -25.296875 C 11.765625 -25.296875 10.394531 -24.925781 9.375 -24.1875 C 8.363281 -23.445312 7.859375 -22.484375 7.859375 -21.296875 C 7.859375 -20.347656 8.164062 -19.566406 8.78125 -18.953125 C 9.394531 -18.335938 10.164062 -17.84375 11.09375 -17.46875 C 12.019531 -17.101562 13.3125 -16.691406 14.96875 -16.234375 C 17.039062 -15.671875 18.726562 -15.113281 20.03125 -14.5625 C 21.332031 -14.019531 22.445312 -13.203125 23.375 -12.109375 C 24.300781 -11.023438 24.785156 -9.609375 24.828125 -7.859375 C 24.828125 -6.273438 24.382812 -4.847656 23.5 -3.578125 C 22.625 -2.316406 21.382812 -1.328125 19.78125 -0.609375 C 18.1875 0.105469 16.351562 0.46875 14.28125 0.46875 Z M 14.28125 0.46875 "/></g></g></g><g fill="#000000" fill-opacity="1"><g transform="translate(234.668673, 55.392727)"><g/></g></g><g fill="#000000" fill-opacity="1"><g transform="translate(248.740185, 55.392727)"><g><path d="M 30.40625 -15.546875 C 30.40625 -14.628906 30.351562 -13.664062 30.25 -12.65625 L 7.171875 -12.65625 C 7.347656 -9.800781 8.320312 -7.570312 10.09375 -5.96875 C 11.863281 -4.375 14.015625 -3.578125 16.546875 -3.578125 C 18.617188 -3.578125 20.347656 -4.0625 21.734375 -5.03125 C 23.128906 -6 24.109375 -7.289062 24.671875 -8.90625 L 29.828125 -8.90625 C 29.054688 -6.132812 27.507812 -3.878906 25.1875 -2.140625 C 22.875 -0.398438 19.992188 0.46875 16.546875 0.46875 C 13.804688 0.46875 11.351562 -0.144531 9.1875 -1.375 C 7.03125 -2.601562 5.335938 -4.347656 4.109375 -6.609375 C 2.878906 -8.878906 2.265625 -11.507812 2.265625 -14.5 C 2.265625 -17.476562 2.859375 -20.09375 4.046875 -22.34375 C 5.242188 -24.59375 6.921875 -26.320312 9.078125 -27.53125 C 11.242188 -28.75 13.734375 -29.359375 16.546875 -29.359375 C 19.285156 -29.359375 21.707031 -28.757812 23.8125 -27.5625 C 25.925781 -26.363281 27.550781 -24.71875 28.6875 -22.625 C 29.832031 -20.539062 30.40625 -18.179688 30.40625 -15.546875 Z M 25.453125 -16.546875 C 25.453125 -18.378906 25.046875 -19.953125 24.234375 -21.265625 C 23.429688 -22.578125 22.335938 -23.578125 20.953125 -24.265625 C 19.566406 -24.953125 18.03125 -25.296875 16.34375 -25.296875 C 13.914062 -25.296875 11.847656 -24.519531 10.140625 -22.96875 C 8.441406 -21.425781 7.46875 -19.285156 7.21875 -16.546875 Z M 25.453125 -16.546875 "/></g></g></g><g fill="#000000" fill-opacity="1"><g transform="translate(281.41565, 55.392727)"><g/></g></g><g fill="#000000" fill-opacity="1"><g transform="translate(295.487162, 55.392727)"><g><path d="M 28.625 -25.984375 C 28.625 -22.921875 27.578125 -20.378906 25.484375 -18.359375 C 23.390625 -16.347656 20.203125 -15.34375 15.921875 -15.34375 L 8.859375 -15.34375 L 8.859375 0 L 4.0625 0 L 4.0625 -36.734375 L 15.921875 -36.734375 C 20.066406 -36.734375 23.21875 -35.726562 25.375 -33.71875 C 27.539062 -31.71875 28.625 -29.140625 28.625 -25.984375 Z M 15.921875 -19.296875 C 18.585938 -19.296875 20.550781 -19.875 21.8125 -21.03125 C 23.082031 -22.1875 23.71875 -23.835938 23.71875 -25.984375 C 23.71875 -30.515625 21.117188 -32.78125 15.921875 -32.78125 L 8.859375 -32.78125 L 8.859375 -19.296875 Z M 15.921875 -19.296875 "/></g></g></g><g fill="#000000" fill-opacity="1"><g transform="translate(326.001818, 55.392727)"><g><path d="M 8.859375 -24.1875 C 9.703125 -25.84375 10.90625 -27.125 12.46875 -28.03125 C 14.03125 -28.945312 15.9375 -29.40625 18.1875 -29.40625 L 18.1875 -24.453125 L 16.921875 -24.453125 C 11.546875 -24.453125 8.859375 -21.535156 8.859375 -15.703125 L 8.859375 0 L 4.0625 0 L 4.0625 -28.875 L 8.859375 -28.875 Z M 8.859375 -24.1875 "/></g></g></g><g fill="#000000" fill-opacity="1"><g transform="translate(345.659788, 55.392727)"><g><path d="M 16.65625 0.46875 C 13.945312 0.46875 11.492188 -0.144531 9.296875 -1.375 C 7.109375 -2.601562 5.390625 -4.347656 4.140625 -6.609375 C 2.890625 -8.878906 2.265625 -11.507812 2.265625 -14.5 C 2.265625 -17.445312 2.90625 -20.050781 4.1875 -22.3125 C 5.46875 -24.582031 7.210938 -26.320312 9.421875 -27.53125 C 11.640625 -28.75 14.117188 -29.359375 16.859375 -29.359375 C 19.597656 -29.359375 22.070312 -28.75 24.28125 -27.53125 C 26.5 -26.320312 28.25 -24.59375 29.53125 -22.34375 C 30.820312 -20.09375 31.46875 -17.476562 31.46875 -14.5 C 31.46875 -11.507812 30.804688 -8.878906 29.484375 -6.609375 C 28.171875 -4.347656 26.390625 -2.601562 24.140625 -1.375 C 21.890625 -0.144531 19.394531 0.46875 16.65625 0.46875 Z M 16.65625 -3.734375 C 18.375 -3.734375 19.988281 -4.140625 21.5 -4.953125 C 23.007812 -5.765625 24.226562 -6.976562 25.15625 -8.59375 C 26.09375 -10.207031 26.5625 -12.175781 26.5625 -14.5 C 26.5625 -16.8125 26.101562 -18.773438 25.1875 -20.390625 C 24.28125 -22.015625 23.085938 -23.21875 21.609375 -24 C 20.128906 -24.789062 18.53125 -25.1875 16.8125 -25.1875 C 15.050781 -25.1875 13.441406 -24.789062 11.984375 -24 C 10.523438 -23.21875 9.359375 -22.015625 8.484375 -20.390625 C 7.609375 -18.773438 7.171875 -16.8125 7.171875 -14.5 C 7.171875 -12.144531 7.597656 -10.15625 8.453125 -8.53125 C 9.316406 -6.914062 10.46875 -5.710938 11.90625 -4.921875 C 13.351562 -4.128906 14.9375 -3.734375 16.65625 -3.734375 Z M 16.65625 -3.734375 "/></g></g></g><g fill="#000000" fill-opacity="1"><g transform="translate(379.389271, 55.392727)"><g><path d="M 6.640625 -33.578125 C 5.722656 -33.578125 4.957031 -33.890625 4.34375 -34.515625 C 3.726562 -35.148438 3.421875 -35.925781 3.421875 -36.84375 C 3.421875 -37.75 3.726562 -38.519531 4.34375 -39.15625 C 4.957031 -39.789062 5.722656 -40.109375 6.640625 -40.109375 C 7.554688 -40.109375 8.320312 -39.789062 8.9375 -39.15625 C 9.550781 -38.519531 9.859375 -37.75 9.859375 -36.84375 C 9.859375 -35.925781 9.550781 -35.148438 8.9375 -34.515625 C 8.320312 -33.890625 7.554688 -33.578125 6.640625 -33.578125 Z M 9.015625 6.265625 C 9.015625 8.835938 8.363281 10.71875 7.0625 11.90625 C 5.757812 13.101562 3.863281 13.703125 1.375 13.703125 L -1.421875 13.703125 L -1.421875 9.640625 L 0.578125 9.640625 C 1.910156 9.640625 2.847656 9.375 3.390625 8.84375 C 3.941406 8.320312 4.21875 7.429688 4.21875 6.171875 L 4.21875 -28.875 L 9.015625 -28.875 Z M 9.015625 6.265625 "/></g></g></g><g fill="#000000" fill-opacity="1"><g transform="translate(392.459448, 55.392727)"><g><path d="M 30.40625 -15.546875 C 30.40625 -14.628906 30.351562 -13.664062 30.25 -12.65625 L 7.171875 -12.65625 C 7.347656 -9.800781 8.320312 -7.570312 10.09375 -5.96875 C 11.863281 -4.375 14.015625 -3.578125 16.546875 -3.578125 C 18.617188 -3.578125 20.347656 -4.0625 21.734375 -5.03125 C 23.128906 -6 24.109375 -7.289062 24.671875 -8.90625 L 29.828125 -8.90625 C 29.054688 -6.132812 27.507812 -3.878906 25.1875 -2.140625 C 22.875 -0.398438 19.992188 0.46875 16.546875 0.46875 C 13.804688 0.46875 11.351562 -0.144531 9.1875 -1.375 C 7.03125 -2.601562 5.335938 -4.347656 4.109375 -6.609375 C 2.878906 -8.878906 2.265625 -11.507812 2.265625 -14.5 C 2.265625 -17.476562 2.859375 -20.09375 4.046875 -22.34375 C 5.242188 -24.59375 6.921875 -26.320312 9.078125 -27.53125 C 11.242188 -28.75 13.734375 -29.359375 16.546875 -29.359375 C 19.285156 -29.359375 21.707031 -28.757812 23.8125 -27.5625 C 25.925781 -26.363281 27.550781 -24.71875 28.6875 -22.625 C 29.832031 -20.539062 30.40625 -18.179688 30.40625 -15.546875 Z M 25.453125 -16.546875 C 25.453125 -18.378906 25.046875 -19.953125 24.234375 -21.265625 C 23.429688 -22.578125 22.335938 -23.578125 20.953125 -24.265625 C 19.566406 -24.953125 18.03125 -25.296875 16.34375 -25.296875 C 13.914062 -25.296875 11.847656 -24.519531 10.140625 -22.96875 C 8.441406 -21.425781 7.46875 -19.285156 7.21875 -16.546875 Z M 25.453125 -16.546875 "/></g></g></g><g fill="#000000" fill-opacity="1"><g transform="translate(425.134913, 55.392727)"><g><path d="M 9.90625 -24.921875 L 9.90625 -7.90625 C 9.90625 -6.5 10.203125 -5.503906 10.796875 -4.921875 C 11.398438 -4.347656 12.4375 -4.0625 13.90625 -4.0625 L 17.4375 -4.0625 L 17.4375 0 L 13.125 0 C 10.457031 0 8.453125 -0.613281 7.109375 -1.84375 C 5.773438 -3.070312 5.109375 -5.09375 5.109375 -7.90625 L 5.109375 -24.921875 L 1.375 -24.921875 L 1.375 -28.875 L 5.109375 -28.875 L 5.109375 -36.15625 L 9.90625 -36.15625 L 9.90625 -28.875 L 17.4375 -28.875 L 17.4375 -24.921875 Z M 9.90625 -24.921875 "/></g></g></g><g fill="#000000" fill-opacity="1"><g transform="translate(444.318558, 55.392727)"><g><path d="M 16.65625 0.46875 C 13.945312 0.46875 11.492188 -0.144531 9.296875 -1.375 C 7.109375 -2.601562 5.390625 -4.347656 4.140625 -6.609375 C 2.890625 -8.878906 2.265625 -11.507812 2.265625 -14.5 C 2.265625 -17.445312 2.90625 -20.050781 4.1875 -22.3125 C 5.46875 -24.582031 7.210938 -26.320312 9.421875 -27.53125 C 11.640625 -28.75 14.117188 -29.359375 16.859375 -29.359375 C 19.597656 -29.359375 22.070312 -28.75 24.28125 -27.53125 C 26.5 -26.320312 28.25 -24.59375 29.53125 -22.34375 C 30.820312 -20.09375 31.46875 -17.476562 31.46875 -14.5 C 31.46875 -11.507812 30.804688 -8.878906 29.484375 -6.609375 C 28.171875 -4.347656 26.390625 -2.601562 24.140625 -1.375 C 21.890625 -0.144531 19.394531 0.46875 16.65625 0.46875 Z M 16.65625 -3.734375 C 18.375 -3.734375 19.988281 -4.140625 21.5 -4.953125 C 23.007812 -5.765625 24.226562 -6.976562 25.15625 -8.59375 C 26.09375 -10.207031 26.5625 -12.175781 26.5625 -14.5 C 26.5625 -16.8125 26.101562 -18.773438 25.1875 -20.390625 C 24.28125 -22.015625 23.085938 -23.21875 21.609375 -24 C 20.128906 -24.789062 18.53125 -25.1875 16.8125 -25.1875 C 15.050781 -25.1875 13.441406 -24.789062 11.984375 -24 C 10.523438 -23.21875 9.359375 -22.015625 8.484375 -20.390625 C 7.609375 -18.773438 7.171875 -16.8125 7.171875 -14.5 C 7.171875 -12.144531 7.597656 -10.15625 8.453125 -8.53125 C 9.316406 -6.914062 10.46875 -5.710938 11.90625 -4.921875 C 13.351562 -4.128906 14.9375 -3.734375 16.65625 -3.734375 Z M 16.65625 -3.734375 "/></g></g></g><g fill="#000000" fill-opacity="1"><g transform="translate(478.04804, 55.392727)"><g><path d="M 14.28125 0.46875 C 12.070312 0.46875 10.085938 0.0898438 8.328125 -0.65625 C 6.566406 -1.414062 5.175781 -2.46875 4.15625 -3.8125 C 3.144531 -5.164062 2.585938 -6.722656 2.484375 -8.484375 L 7.4375 -8.484375 C 7.570312 -7.046875 8.242188 -5.867188 9.453125 -4.953125 C 10.671875 -4.035156 12.265625 -3.578125 14.234375 -3.578125 C 16.054688 -3.578125 17.492188 -3.984375 18.546875 -4.796875 C 19.597656 -5.609375 20.125 -6.628906 20.125 -7.859375 C 20.125 -9.117188 19.5625 -10.054688 18.4375 -10.671875 C 17.320312 -11.285156 15.585938 -11.890625 13.234375 -12.484375 C 11.085938 -13.046875 9.335938 -13.617188 7.984375 -14.203125 C 6.628906 -14.785156 5.46875 -15.644531 4.5 -16.78125 C 3.539062 -17.925781 3.0625 -19.429688 3.0625 -21.296875 C 3.0625 -22.765625 3.5 -24.113281 4.375 -25.34375 C 5.25 -26.570312 6.492188 -27.546875 8.109375 -28.265625 C 9.734375 -28.992188 11.582031 -29.359375 13.65625 -29.359375 C 16.851562 -29.359375 19.429688 -28.546875 21.390625 -26.921875 C 23.359375 -25.304688 24.414062 -23.097656 24.5625 -20.296875 L 19.765625 -20.296875 C 19.660156 -21.804688 19.050781 -23.015625 17.9375 -23.921875 C 16.832031 -24.835938 15.347656 -25.296875 13.484375 -25.296875 C 11.765625 -25.296875 10.394531 -24.925781 9.375 -24.1875 C 8.363281 -23.445312 7.859375 -22.484375 7.859375 -21.296875 C 7.859375 -20.347656 8.164062 -19.566406 8.78125 -18.953125 C 9.394531 -18.335938 10.164062 -17.84375 11.09375 -17.46875 C 12.019531 -17.101562 13.3125 -16.691406 14.96875 -16.234375 C 17.039062 -15.671875 18.726562 -15.113281 20.03125 -14.5625 C 21.332031 -14.019531 22.445312 -13.203125 23.375 -12.109375 C 24.300781 -11.023438 24.785156 -9.609375 24.828125 -7.859375 C 24.828125 -6.273438 24.382812 -4.847656 23.5 -3.578125 C 22.625 -2.316406 21.382812 -1.328125 19.78125 -0.609375 C 18.1875 0.105469 16.351562 0.46875 14.28125 0.46875 Z M 14.28125 0.46875 "/></g></g></g><g fill="#000000" fill-opacity="1"><g transform="translate(505.558645, 55.392727)"><g/></g></g><g fill="#000000" fill-opacity="1"><g transform="translate(519.630202, 55.392727)"><g><path d="M 30.40625 -15.546875 C 30.40625 -14.628906 30.351562 -13.664062 30.25 -12.65625 L 7.171875 -12.65625 C 7.347656 -9.800781 8.320312 -7.570312 10.09375 -5.96875 C 11.863281 -4.375 14.015625 -3.578125 16.546875 -3.578125 C 18.617188 -3.578125 20.347656 -4.0625 21.734375 -5.03125 C 23.128906 -6 24.109375 -7.289062 24.671875 -8.90625 L 29.828125 -8.90625 C 29.054688 -6.132812 27.507812 -3.878906 25.1875 -2.140625 C 22.875 -0.398438 19.992188 0.46875 16.546875 0.46875 C 13.804688 0.46875 11.351562 -0.144531 9.1875 -1.375 C 7.03125 -2.601562 5.335938 -4.347656 4.109375 -6.609375 C 2.878906 -8.878906 2.265625 -11.507812 2.265625 -14.5 C 2.265625 -17.476562 2.859375 -20.09375 4.046875 -22.34375 C 5.242188 -24.59375 6.921875 -26.320312 9.078125 -27.53125 C 11.242188 -28.75 13.734375 -29.359375 16.546875 -29.359375 C 19.285156 -29.359375 21.707031 -28.757812 23.8125 -27.5625 C 25.925781 -26.363281 27.550781 -24.71875 28.6875 -22.625 C 29.832031 -20.539062 30.40625 -18.179688 30.40625 -15.546875 Z M 25.453125 -16.546875 C 25.453125 -18.378906 25.046875 -19.953125 24.234375 -21.265625 C 23.429688 -22.578125 22.335938 -23.578125 20.953125 -24.265625 C 19.566406 -24.953125 18.03125 -25.296875 16.34375 -25.296875 C 13.914062 -25.296875 11.847656 -24.519531 10.140625 -22.96875 C 8.441406 -21.425781 7.46875 -19.285156 7.21875 -16.546875 Z M 25.453125 -16.546875 "/></g></g></g><g fill="#000000" fill-opacity="1"><g transform="translate(552.305622, 55.392727)"><g><path d="M 38.796875 -29.40625 C 41.035156 -29.40625 43.035156 -28.9375 44.796875 -28 C 46.554688 -27.070312 47.941406 -25.675781 48.953125 -23.8125 C 49.972656 -21.957031 50.484375 -19.691406 50.484375 -17.015625 L 50.484375 0 L 45.75 0 L 45.75 -16.34375 C 45.75 -19.21875 45.035156 -21.421875 43.609375 -22.953125 C 42.191406 -24.484375 40.269531 -25.25 37.84375 -25.25 C 35.34375 -25.25 33.351562 -24.445312 31.875 -22.84375 C 30.40625 -21.25 29.671875 -18.941406 29.671875 -15.921875 L 29.671875 0 L 24.921875 0 L 24.921875 -16.34375 C 24.921875 -19.21875 24.207031 -21.421875 22.78125 -22.953125 C 21.363281 -24.484375 19.441406 -25.25 17.015625 -25.25 C 14.523438 -25.25 12.539062 -24.445312 11.0625 -22.84375 C 9.59375 -21.25 8.859375 -18.941406 8.859375 -15.921875 L 8.859375 0 L 4.0625 0 L 4.0625 -28.875 L 8.859375 -28.875 L 8.859375 -24.71875 C 9.804688 -26.226562 11.078125 -27.382812 12.671875 -28.1875 C 14.273438 -29 16.039062 -29.40625 17.96875 -29.40625 C 20.394531 -29.40625 22.535156 -28.859375 24.390625 -27.765625 C 26.253906 -26.679688 27.644531 -25.085938 28.5625 -22.984375 C 29.375 -25.015625 30.707031 -26.59375 32.5625 -27.71875 C 34.425781 -28.84375 36.503906 -29.40625 38.796875 -29.40625 Z M 38.796875 -29.40625 "/></g></g></g><g fill="#000000" fill-opacity="1"><g transform="translate(606.589045, 55.392727)"><g/></g></g><g fill="#000000" fill-opacity="1"><g transform="translate(620.660557, 55.392727)"><g><path d="M 24.828125 -36.734375 L 24.828125 -32.828125 L 8.859375 -32.828125 L 8.859375 -20.453125 L 21.8125 -20.453125 L 21.8125 -16.546875 L 8.859375 -16.546875 L 8.859375 0 L 4.0625 0 L 4.0625 -36.734375 Z M 24.828125 -36.734375 "/></g></g></g><g fill="#000000" fill-opacity="1"><g transform="translate(647.222554, 55.392727)"><g><path d="M 6.53125 -33.578125 C 5.625 -33.578125 4.851562 -33.890625 4.21875 -34.515625 C 3.582031 -35.148438 3.265625 -35.925781 3.265625 -36.84375 C 3.265625 -37.75 3.582031 -38.519531 4.21875 -39.15625 C 4.851562 -39.789062 5.625 -40.109375 6.53125 -40.109375 C 7.414062 -40.109375 8.164062 -39.789062 8.78125 -39.15625 C 9.394531 -38.519531 9.703125 -37.75 9.703125 -36.84375 C 9.703125 -35.925781 9.394531 -35.148438 8.78125 -34.515625 C 8.164062 -33.890625 7.414062 -33.578125 6.53125 -33.578125 Z M 8.859375 -28.875 L 8.859375 0 L 4.0625 0 L 4.0625 -28.875 Z M 8.859375 -28.875 "/></g></g></g><g fill="#000000" fill-opacity="1"><g transform="translate(660.18732, 55.392727)"><g><path d="M 8.859375 -23.5 C 9.835938 -25.226562 11.273438 -26.632812 13.171875 -27.71875 C 15.066406 -28.8125 17.226562 -29.359375 19.65625 -29.359375 C 22.257812 -29.359375 24.597656 -28.742188 26.671875 -27.515625 C 28.742188 -26.285156 30.375 -24.550781 31.5625 -22.3125 C 32.757812 -20.082031 33.359375 -17.492188 33.359375 -14.546875 C 33.359375 -11.628906 32.757812 -9.023438 31.5625 -6.734375 C 30.375 -4.453125 28.734375 -2.679688 26.640625 -1.421875 C 24.546875 -0.160156 22.21875 0.46875 19.65625 0.46875 C 17.164062 0.46875 14.976562 -0.0703125 13.09375 -1.15625 C 11.21875 -2.25 9.804688 -3.640625 8.859375 -5.328125 L 8.859375 0 L 4.0625 0 L 4.0625 -39 L 8.859375 -39 Z M 28.453125 -14.546875 C 28.453125 -16.722656 28.015625 -18.617188 27.140625 -20.234375 C 26.265625 -21.847656 25.078125 -23.078125 23.578125 -23.921875 C 22.085938 -24.765625 20.445312 -25.1875 18.65625 -25.1875 C 16.894531 -25.1875 15.269531 -24.753906 13.78125 -23.890625 C 12.289062 -23.035156 11.097656 -21.789062 10.203125 -20.15625 C 9.304688 -18.519531 8.859375 -16.632812 8.859375 -14.5 C 8.859375 -12.3125 9.304688 -10.398438 10.203125 -8.765625 C 11.097656 -7.140625 12.289062 -5.894531 13.78125 -5.03125 C 15.269531 -4.164062 16.894531 -3.734375 18.65625 -3.734375 C 20.445312 -3.734375 22.085938 -4.164062 23.578125 -5.03125 C 25.078125 -5.894531 26.265625 -7.140625 27.140625 -8.765625 C 28.015625 -10.398438 28.453125 -12.328125 28.453125 -14.546875 Z M 28.453125 -14.546875 "/></g></g></g><g fill="#000000" fill-opacity="1"><g transform="translate(695.814108, 55.392727)"><g><path d="M 8.859375 -24.1875 C 9.703125 -25.84375 10.90625 -27.125 12.46875 -28.03125 C 14.03125 -28.945312 15.9375 -29.40625 18.1875 -29.40625 L 18.1875 -24.453125 L 16.921875 -24.453125 C 11.546875 -24.453125 8.859375 -21.535156 8.859375 -15.703125 L 8.859375 0 L 4.0625 0 L 4.0625 -28.875 L 8.859375 -28.875 Z M 8.859375 -24.1875 "/></g></g></g><g fill="#000000" fill-opacity="1"><g transform="translate(715.472079, 55.392727)"><g><path d="M 2.265625 -14.546875 C 2.265625 -17.492188 2.859375 -20.082031 4.046875 -22.3125 C 5.242188 -24.550781 6.890625 -26.285156 8.984375 -27.515625 C 11.078125 -28.742188 13.40625 -29.359375 15.96875 -29.359375 C 18.5 -29.359375 20.691406 -28.8125 22.546875 -27.71875 C 24.410156 -26.632812 25.800781 -25.265625 26.71875 -23.609375 L 26.71875 -28.875 L 31.5625 -28.875 L 31.5625 0 L 26.71875 0 L 26.71875 -5.375 C 25.769531 -3.6875 24.351562 -2.289062 22.46875 -1.1875 C 20.59375 -0.0820312 18.410156 0.46875 15.921875 0.46875 C 13.347656 0.46875 11.023438 -0.160156 8.953125 -1.421875 C 6.878906 -2.679688 5.242188 -4.453125 4.046875 -6.734375 C 2.859375 -9.023438 2.265625 -11.628906 2.265625 -14.546875 Z M 26.71875 -14.5 C 26.71875 -16.675781 26.273438 -18.570312 25.390625 -20.1875 C 24.515625 -21.800781 23.332031 -23.035156 21.84375 -23.890625 C 20.351562 -24.753906 18.710938 -25.1875 16.921875 -25.1875 C 15.128906 -25.1875 13.492188 -24.765625 12.015625 -23.921875 C 10.535156 -23.078125 9.359375 -21.847656 8.484375 -20.234375 C 7.609375 -18.617188 7.171875 -16.722656 7.171875 -14.546875 C 7.171875 -12.328125 7.609375 -10.398438 8.484375 -8.765625 C 9.359375 -7.140625 10.535156 -5.894531 12.015625 -5.03125 C 13.492188 -4.164062 15.128906 -3.734375 16.921875 -3.734375 C 18.710938 -3.734375 20.351562 -4.164062 21.84375 -5.03125 C 23.332031 -5.894531 24.515625 -7.140625 25.390625 -8.765625 C 26.273438 -10.398438 26.71875 -12.3125 26.71875 -14.5 Z M 26.71875 -14.5 "/></g></g></g><g fill="#000000" fill-opacity="1"><g transform="translate(751.098822, 55.392727)"><g/></g></g><g fill="#000000" fill-opacity="1"><g transform="translate(765.170334, 55.392727)"><g><path d="M 2.265625 -14.546875 C 2.265625 -17.492188 2.859375 -20.082031 4.046875 -22.3125 C 5.242188 -24.550781 6.890625 -26.285156 8.984375 -27.515625 C 11.078125 -28.742188 13.421875 -29.359375 16.015625 -29.359375 C 18.265625 -29.359375 20.351562 -28.835938 22.28125 -27.796875 C 24.21875 -26.765625 25.695312 -25.40625 26.71875 -23.71875 L 26.71875 -39 L 31.5625 -39 L 31.5625 0 L 26.71875 0 L 26.71875 -5.421875 C 25.769531 -3.703125 24.363281 -2.289062 22.5 -1.1875 C 20.644531 -0.0820312 18.46875 0.46875 15.96875 0.46875 C 13.40625 0.46875 11.078125 -0.160156 8.984375 -1.421875 C 6.890625 -2.679688 5.242188 -4.453125 4.046875 -6.734375 C 2.859375 -9.023438 2.265625 -11.628906 2.265625 -14.546875 Z M 26.71875 -14.5 C 26.71875 -16.675781 26.273438 -18.570312 25.390625 -20.1875 C 24.515625 -21.800781 23.332031 -23.035156 21.84375 -23.890625 C 20.351562 -24.753906 18.710938 -25.1875 16.921875 -25.1875 C 15.128906 -25.1875 13.492188 -24.765625 12.015625 -23.921875 C 10.535156 -23.078125 9.359375 -21.847656 8.484375 -20.234375 C 7.609375 -18.617188 7.171875 -16.722656 7.171875 -14.546875 C 7.171875 -12.328125 7.609375 -10.398438 8.484375 -8.765625 C 9.359375 -7.140625 10.535156 -5.894531 12.015625 -5.03125 C 13.492188 -4.164062 15.128906 -3.734375 16.921875 -3.734375 C 18.710938 -3.734375 20.351562 -4.164062 21.84375 -5.03125 C 23.332031 -5.894531 24.515625 -7.140625 25.390625 -8.765625 C 26.273438 -10.398438 26.71875 -12.3125 26.71875 -14.5 Z M 26.71875 -14.5 "/></g></g></g><g fill="#000000" fill-opacity="1"><g transform="translate(800.797122, 55.392727)"><g><path d="M 30.40625 -15.546875 C 30.40625 -14.628906 30.351562 -13.664062 30.25 -12.65625 L 7.171875 -12.65625 C 7.347656 -9.800781 8.320312 -7.570312 10.09375 -5.96875 C 11.863281 -4.375 14.015625 -3.578125 16.546875 -3.578125 C 18.617188 -3.578125 20.347656 -4.0625 21.734375 -5.03125 C 23.128906 -6 24.109375 -7.289062 24.671875 -8.90625 L 29.828125 -8.90625 C 29.054688 -6.132812 27.507812 -3.878906 25.1875 -2.140625 C 22.875 -0.398438 19.992188 0.46875 16.546875 0.46875 C 13.804688 0.46875 11.351562 -0.144531 9.1875 -1.375 C 7.03125 -2.601562 5.335938 -4.347656 4.109375 -6.609375 C 2.878906 -8.878906 2.265625 -11.507812 2.265625 -14.5 C 2.265625 -17.476562 2.859375 -20.09375 4.046875 -22.34375 C 5.242188 -24.59375 6.921875 -26.320312 9.078125 -27.53125 C 11.242188 -28.75 13.734375 -29.359375 16.546875 -29.359375 C 19.285156 -29.359375 21.707031 -28.757812 23.8125 -27.5625 C 25.925781 -26.363281 27.550781 -24.71875 28.6875 -22.625 C 29.832031 -20.539062 30.40625 -18.179688 30.40625 -15.546875 Z M 25.453125 -16.546875 C 25.453125 -18.378906 25.046875 -19.953125 24.234375 -21.265625 C 23.429688 -22.578125 22.335938 -23.578125 20.953125 -24.265625 C 19.566406 -24.953125 18.03125 -25.296875 16.34375 -25.296875 C 13.914062 -25.296875 11.847656 -24.519531 10.140625 -22.96875 C 8.441406 -21.425781 7.46875 -19.285156 7.21875 -16.546875 Z M 25.453125 -16.546875 "/></g></g></g><g fill="#000000" fill-opacity="1"><g transform="translate(833.472587, 55.392727)"><g/></g></g><g fill="#000000" fill-opacity="1"><g transform="translate(847.544144, 55.392727)"><g><path d="M 34.421875 -36.734375 L 20.546875 0 L 15.015625 0 L 1.15625 -36.734375 L 6.265625 -36.734375 L 17.8125 -5.0625 L 29.359375 -36.734375 Z M 34.421875 -36.734375 "/></g></g></g><g fill="#000000" fill-opacity="1"><g transform="translate(883.170932, 55.392727)"><g><path d="M 6.53125 -33.578125 C 5.625 -33.578125 4.851562 -33.890625 4.21875 -34.515625 C 3.582031 -35.148438 3.265625 -35.925781 3.265625 -36.84375 C 3.265625 -37.75 3.582031 -38.519531 4.21875 -39.15625 C 4.851562 -39.789062 5.625 -40.109375 6.53125 -40.109375 C 7.414062 -40.109375 8.164062 -39.789062 8.78125 -39.15625 C 9.394531 -38.519531 9.703125 -37.75 9.703125 -36.84375 C 9.703125 -35.925781 9.394531 -35.148438 8.78125 -34.515625 C 8.164062 -33.890625 7.414062 -33.578125 6.53125 -33.578125 Z M 8.859375 -28.875 L 8.859375 0 L 4.0625 0 L 4.0625 -28.875 Z M 8.859375 -28.875 "/></g></g></g><g fill="#000000" fill-opacity="1"><g transform="translate(896.135698, 55.392727)"><g><path d="M 2.265625 -14.546875 C 2.265625 -17.492188 2.859375 -20.082031 4.046875 -22.3125 C 5.242188 -24.550781 6.890625 -26.285156 8.984375 -27.515625 C 11.078125 -28.742188 13.421875 -29.359375 16.015625 -29.359375 C 18.265625 -29.359375 20.351562 -28.835938 22.28125 -27.796875 C 24.21875 -26.765625 25.695312 -25.40625 26.71875 -23.71875 L 26.71875 -39 L 31.5625 -39 L 31.5625 0 L 26.71875 0 L 26.71875 -5.421875 C 25.769531 -3.703125 24.363281 -2.289062 22.5 -1.1875 C 20.644531 -0.0820312 18.46875 0.46875 15.96875 0.46875 C 13.40625 0.46875 11.078125 -0.160156 8.984375 -1.421875 C 6.890625 -2.679688 5.242188 -4.453125 4.046875 -6.734375 C 2.859375 -9.023438 2.265625 -11.628906 2.265625 -14.546875 Z M 26.71875 -14.5 C 26.71875 -16.675781 26.273438 -18.570312 25.390625 -20.1875 C 24.515625 -21.800781 23.332031 -23.035156 21.84375 -23.890625 C 20.351562 -24.753906 18.710938 -25.1875 16.921875 -25.1875 C 15.128906 -25.1875 13.492188 -24.765625 12.015625 -23.921875 C 10.535156 -23.078125 9.359375 -21.847656 8.484375 -20.234375 C 7.609375 -18.617188 7.171875 -16.722656 7.171875 -14.546875 C 7.171875 -12.328125 7.609375 -10.398438 8.484375 -8.765625 C 9.359375 -7.140625 10.535156 -5.894531 12.015625 -5.03125 C 13.492188 -4.164062 15.128906 -3.734375 16.921875 -3.734375 C 18.710938 -3.734375 20.351562 -4.164062 21.84375 -5.03125 C 23.332031 -5.894531 24.515625 -7.140625 25.390625 -8.765625 C 26.273438 -10.398438 26.71875 -12.3125 26.71875 -14.5 Z M 26.71875 -14.5 "/></g></g></g><g fill="#000000" fill-opacity="1"><g transform="translate(931.762396, 55.392727)"><g><path d="M 8.859375 -24.1875 C 9.703125 -25.84375 10.90625 -27.125 12.46875 -28.03125 C 14.03125 -28.945312 15.9375 -29.40625 18.1875 -29.40625 L 18.1875 -24.453125 L 16.921875 -24.453125 C 11.546875 -24.453125 8.859375 -21.535156 8.859375 -15.703125 L 8.859375 0 L 4.0625 0 L 4.0625 -28.875 L 8.859375 -28.875 Z M 8.859375 -24.1875 "/></g></g></g><g fill="#000000" fill-opacity="1"><g transform="translate(951.420411, 55.392727)"><g><path d="M 16.65625 0.46875 C 13.945312 0.46875 11.492188 -0.144531 9.296875 -1.375 C 7.109375 -2.601562 5.390625 -4.347656 4.140625 -6.609375 C 2.890625 -8.878906 2.265625 -11.507812 2.265625 -14.5 C 2.265625 -17.445312 2.90625 -20.050781 4.1875 -22.3125 C 5.46875 -24.582031 7.210938 -26.320312 9.421875 -27.53125 C 11.640625 -28.75 14.117188 -29.359375 16.859375 -29.359375 C 19.597656 -29.359375 22.070312 -28.75 24.28125 -27.53125 C 26.5 -26.320312 28.25 -24.59375 29.53125 -22.34375 C 30.820312 -20.09375 31.46875 -17.476562 31.46875 -14.5 C 31.46875 -11.507812 30.804688 -8.878906 29.484375 -6.609375 C 28.171875 -4.347656 26.390625 -2.601562 24.140625 -1.375 C 21.890625 -0.144531 19.394531 0.46875 16.65625 0.46875 Z M 16.65625 -3.734375 C 18.375 -3.734375 19.988281 -4.140625 21.5 -4.953125 C 23.007812 -5.765625 24.226562 -6.976562 25.15625 -8.59375 C 26.09375 -10.207031 26.5625 -12.175781 26.5625 -14.5 C 26.5625 -16.8125 26.101562 -18.773438 25.1875 -20.390625 C 24.28125 -22.015625 23.085938 -23.21875 21.609375 -24 C 20.128906 -24.789062 18.53125 -25.1875 16.8125 -25.1875 C 15.050781 -25.1875 13.441406 -24.789062 11.984375 -24 C 10.523438 -23.21875 9.359375 -22.015625 8.484375 -20.390625 C 7.609375 -18.773438 7.171875 -16.8125 7.171875 -14.5 C 7.171875 -12.144531 7.597656 -10.15625 8.453125 -8.53125 C 9.316406 -6.914062 10.46875 -5.710938 11.90625 -4.921875 C 13.351562 -4.128906 14.9375 -3.734375 16.65625 -3.734375 Z M 16.65625 -3.734375 "/></g></g></g></g></g></svg>